<svg height="512pt" viewBox="0 0 512 512.01067" width="512pt" xmlns="http://www.w3.org/2000/svg"><path d="m410.671875 512.011719h-85.332031c-8.832032 0-16-7.167969-16-16v-138.667969c0-2.945312-2.390625-5.332031-5.335938-5.332031h-96c-2.941406 0-5.332031 2.386719-5.332031 5.332031v138.667969c0 8.832031-7.167969 16-16 16h-85.332031c-20.585938 0-37.335938-16.746094-37.335938-37.335938v-197.332031h-37.332031c-14.699219 0-26.66796875-11.96875-26.66796875-26.667969 0-7.058593 2.88281275-13.972656 7.89453175-18.984375l237.035156-227.242187c6.1875-5.933594 15.957031-5.933594 22.144531 0l236.800781 226.984375c5.246094 5.269531 8.125 12.183594 8.125 19.242187 0 14.699219-11.964844 26.667969-26.664062 26.667969h-37.335938v197.332031c0 20.589844-16.746094 37.335938-37.332031 37.335938zm-69.332031-32h69.332031c2.902344 0 5.332031-2.433594 5.332031-5.335938v-213.332031c0-8.832031 7.167969-16 16-16h40.128906l-216.128906-207.167969-216.125 207.167969h40.125c8.832032 0 16 7.167969 16 16v213.332031c0 2.902344 2.433594 5.335938 5.335938 5.335938h69.332031v-122.667969c0-20.585938 16.746094-37.332031 37.332031-37.332031h96c20.589844 0 37.335938 16.746093 37.335938 37.332031zm0 0"/></svg>